<svg id="Слой_1" data-name="Слой 1" xmlns="http://www.w3.org/2000/svg" viewBox="0 0 48 1046"><title>1</title><polyline points="48 0 48 86 6 86 6 130 48 130 48 174 42 174 42 136 6 136 0 136 0 86 0 80 42 80 48 0"/><path d="M1118.5,182.5v-1.24c-1.39-2.26-2.76-4.52-5.2-5.45h-.75l0,.69h-42v56h42v38h6v-44h-42v-44Z" transform="translate(-1070.5 -8.5)"/><path d="M1118.5,270.5v-1.24c-1.39-2.26-2.76-4.52-5.2-5.45h-.75l0,.69h-42v56h42v38h6v-44h-42v-44Z" transform="translate(-1070.5 -8.5)"/><path d="M1118.5,358.5v-1.24c-1.39-2.26-2.76-4.52-5.2-5.45h-.75l0,.69h-42v56h42v38h6v-44h-42v-44Z" transform="translate(-1070.5 -8.5)"/><path d="M1118.5,446.5v-1.24c-1.39-2.26-2.76-4.52-5.2-5.45h-.75l0,.69h-42v56h42v38h6v-44h-42v-44Z" transform="translate(-1070.5 -8.5)"/><path d="M1118.5,534.5v-1.24c-1.39-2.26-2.76-4.52-5.2-5.45h-.75l0,.69h-42v56h42v38h6v-44h-42v-44Z" transform="translate(-1070.5 -8.5)"/><path d="M1118.5,622.5v-1.24c-1.39-2.26-2.76-4.52-5.2-5.45h-.75l0,.69h-42v56h42v38h6v-44h-42v-44Z" transform="translate(-1070.5 -8.5)"/><path d="M1118.5,710.5v-1.24c-1.39-2.26-2.76-4.52-5.2-5.45h-.75l0,.69h-42v56h42v38h6v-44h-42v-44Z" transform="translate(-1070.5 -8.5)"/><path d="M1118.5,798.5v-1.24c-1.39-2.26-2.76-4.52-5.2-5.45h-.75l0,.69h-42v56h42v38h6v-44h-42v-44Z" transform="translate(-1070.5 -8.5)"/><path d="M1118.5,886.5v-1.24c-1.39-2.26-2.76-4.52-5.2-5.45h-.75l0,.69h-42v56h42v38h6v-44h-42v-44Z" transform="translate(-1070.5 -8.5)"/><path d="M1112.5,966.78v1.72h-42v86l6-80h42v-7.18A28.66,28.66,0,0,1,1112.5,966.78Z" transform="translate(-1070.5 -8.5)"/></svg>