<svg id="Слой_1" data-name="Слой 1" xmlns="http://www.w3.org/2000/svg" viewBox="0 0 48 1046"><defs><style>.cls-1{fill:#4949c4;}</style></defs><title>2</title><polyline class="cls-1" points="0 0 0 86 42 86 42 130 0 130 0 174 6 174 6 136 42 136 48 136 48 86 48 80 6 80 0 0"/><path class="cls-1" d="M826.5,208.5v-1.24c1.39-2.26,2.76-4.52,5.2-5.45h.75l0,.69h42v56h-42v38h-6v-44h42v-44Z" transform="translate(-826.5 -34.5)"/><path class="cls-1" d="M826.5,296.5v-1.24c1.39-2.26,2.76-4.52,5.2-5.45h.75l0,.69h42v56h-42v38h-6v-44h42v-44Z" transform="translate(-826.5 -34.5)"/><path class="cls-1" d="M826.5,384.5v-1.24c1.39-2.26,2.76-4.52,5.2-5.45h.75l0,.69h42v56h-42v38h-6v-44h42v-44Z" transform="translate(-826.5 -34.5)"/><path class="cls-1" d="M826.5,472.5v-1.24c1.39-2.26,2.76-4.52,5.2-5.45h.75l0,.69h42v56h-42v38h-6v-44h42v-44Z" transform="translate(-826.5 -34.5)"/><path class="cls-1" d="M826.5,560.5v-1.24c1.39-2.26,2.76-4.52,5.2-5.45h.75l0,.69h42v56h-42v38h-6v-44h42v-44Z" transform="translate(-826.5 -34.5)"/><path class="cls-1" d="M826.5,648.5v-1.24c1.39-2.26,2.76-4.52,5.2-5.45h.75l0,.69h42v56h-42v38h-6v-44h42v-44Z" transform="translate(-826.5 -34.5)"/><path class="cls-1" d="M826.5,736.5v-1.24c1.39-2.26,2.76-4.52,5.2-5.45h.75l0,.69h42v56h-42v38h-6v-44h42v-44Z" transform="translate(-826.5 -34.5)"/><path class="cls-1" d="M826.5,824.5v-1.24c1.39-2.26,2.76-4.52,5.2-5.45h.75l0,.69h42v56h-42v38h-6v-44h42v-44Z" transform="translate(-826.5 -34.5)"/><path class="cls-1" d="M826.5,912.5v-1.24c1.39-2.26,2.76-4.52,5.2-5.45h.75l0,.69h42v56h-42v38h-6v-44h42v-44Z" transform="translate(-826.5 -34.5)"/><path class="cls-1" d="M832.5,992.78v1.72h42v86l-6-80h-42v-7.18A28.66,28.66,0,0,0,832.5,992.78Z" transform="translate(-826.5 -34.5)"/></svg>